<svg width="1920" height="1080" viewBox="0 0 1920 1080" fill="none" xmlns="http://www.w3.org/2000/svg">
<g clip-path="url(#clip0_1_2)">
<path d="M0 0H1920V1080H0V0Z" fill="#0E151B"/>
<path d="M1749.18 470.308C1794.95 466.394 1835.27 500.26 1839.31 546.017C1843.35 591.775 1809.61 632.182 1763.87 636.353C1717.92 640.558 1677.32 606.646 1673.25 560.69C1669.2 514.745 1703.23 474.233 1749.18 470.308Z" fill="#FDFDFC"/>
<path d="M1748.49 499.489C1760.49 498.274 1772.54 499.886 1782.93 506.323C1793.75 512.911 1801.53 523.518 1804.57 535.819C1811.88 565.69 1799.84 599.765 1767.02 606.809C1692.39 615.769 1686.84 507.888 1748.49 499.489Z" fill="#0E151B"/>
<path d="M768.429 474.198C793.094 474.794 845.079 471.698 865.641 480.366C876.023 484.735 884.511 492.351 888.672 502.97C893.479 515.236 892.999 532.373 887.64 544.323C881.644 557.699 870.106 566.215 856.809 571.379C869.767 591.424 882.476 611.821 895.94 631.516L872.341 631.213L858.589 631.061C847.094 613.234 835.241 592.698 823.864 574.381L800.214 574.906L800.351 631.318L768.596 631.189L768.429 474.198Z" fill="#FDFDFC"/>
<path d="M799.594 501.662C817.174 501.79 858.326 495.389 859.73 518.974C860.323 528.939 858.795 533.226 852.462 540.539C841.093 550.129 814.925 547.559 800.146 547.805C800.193 532.805 800.568 516.509 799.594 501.662Z" fill="#0E151B"/>
<path d="M1434.22 474.034L1465.36 474.244C1464.65 516.719 1465.75 559.545 1465.52 602.055C1465.47 611.33 1465.84 621.178 1465.19 630.36L1463.59 631.154C1452.68 631.201 1441.77 631.131 1430.85 630.944L1377.61 552.956C1372.21 545.2 1360.68 527.665 1354.85 521.275C1354.19 557.956 1354.14 594.637 1354.73 631.306L1323.1 631.189L1322.93 474.256L1360.13 474.28L1408.22 546.683C1416.1 558.505 1425.26 571.297 1432.49 583.364C1434.37 549.242 1433.8 508.636 1434.22 474.034Z" fill="#FDFDFC"/>
<path d="M645.893 473.403C657.315 474.443 669.482 474.198 680.983 474.163C703.846 525.972 725.308 578.388 745.346 631.353L711.041 631.54C706.671 621.073 702.439 610.548 698.343 599.976L678.506 599.894L627.7 599.917C623.285 610.162 619.1 621.038 614.95 631.435C603.56 631.668 592.168 631.703 580.777 631.54C583.817 623.514 587.718 615.804 590.96 607.826L618.84 538.81C627.195 518.554 636.699 492.69 645.893 473.403Z" fill="#FDFDFC"/>
<path d="M663.507 506.732C667.606 512.981 684.835 562.22 688.11 571.612L664.321 571.694L639.056 571.519C646.691 549.732 654.843 528.133 663.507 506.732Z" fill="#0E151B"/>
<path d="M972.051 473.894C983.682 474.42 996.584 474.174 1008.33 474.163C1028.11 527.572 1050.57 578.785 1072.22 631.318C1060.6 631.376 1048.97 631.306 1037.35 631.108C1033.43 620.804 1029.45 610.513 1025.4 600.256L1009.99 599.929C991.749 599.824 973.505 599.964 955.265 600.361C951.561 611.202 947.524 620.746 942.977 631.224L908.344 631.411C913.481 616.365 923.563 594.66 929.944 578.878L972.051 473.894Z" fill="#FDFDFC"/>
<path d="M990.313 506.72C992.088 509.757 997.052 525.913 998.828 530.726C1003.8 544.207 1009.06 557.863 1013.59 571.472L991.147 571.53C983.347 571.507 975.032 571.04 967.199 570.748C974.312 548.529 981.963 528.471 990.313 506.72Z" fill="#0E151B"/>
<path d="M1571.69 471.896C1598.59 468.707 1622.06 476.382 1641.28 495.155C1634.56 501.568 1627.79 508.519 1621.18 515.107C1605.99 498.741 1582.23 494.244 1561.66 502.339C1520.97 518.343 1521.79 588.761 1562.94 603.749C1579.35 609.73 1597.95 607.347 1613.58 600.198C1613.51 590.104 1613.52 580.023 1613.64 569.942C1603.55 569.848 1593.27 569.977 1583.16 570.012C1583.05 564.393 1582.09 547.162 1584.31 543.062L1586.66 542.56C1605.81 542.303 1624.97 542.233 1644.12 542.361C1644.7 566.811 1644.78 591.261 1644.35 615.711C1613.32 641.422 1563.93 641.621 1531.02 619.309C1495.05 594.941 1488.95 537.221 1513.59 503.005C1527.86 483.169 1548.36 475.541 1571.69 471.896Z" fill="#FDFDFC"/>
<path d="M1067.37 474.069L1101.52 474.023C1114.92 514.185 1133.39 557.571 1145.34 596.284C1152.34 580.373 1157.6 563.657 1163.6 547.408C1172.61 523.051 1180.91 498.928 1189.06 474.28C1200.43 474.116 1211.79 474.209 1223.15 474.537C1220.9 482.994 1216.22 494.092 1212.97 502.468C1196.92 544.978 1180.73 589.731 1163.92 631.82C1152.13 631.283 1139.36 631.365 1127.49 631.248L1086.94 526.31C1080.5 509.524 1072.98 490.973 1067.37 474.069Z" fill="#FDFDFC"/>
<path d="M467.789 473.952C477.918 474.233 488.4 474.209 498.56 474.291C500.362 514.43 499.261 562.933 499.099 603.632C522.697 604.006 546.296 604.123 569.897 603.983C569.98 613.27 569.895 622.568 569.641 631.855C559.574 632.509 544.358 632.019 534.028 631.949L468.089 631.271C467.658 579.918 466.522 525.002 467.789 473.952Z" fill="#FDFDFC"/>
<path d="M1249.59 473.731C1260.03 474.373 1270.29 474.163 1280.74 474.081L1280.63 631.785C1271.01 631.259 1259.93 631.423 1250.18 631.353C1248.46 581.004 1249.49 524.5 1249.59 473.731Z" fill="#FDFDFC"/>
<path d="M139.097 422.429C138.982 421.669 138.977 421.96 139.198 421.206C140.724 420.927 146.081 421.107 147.892 421.124C153.687 421.153 159.482 421.226 165.277 421.344C166.489 421.299 167.606 421.245 168.819 421.285C171.998 421.212 175.179 421.212 178.359 421.286L178.389 425.03C178.934 443.515 178.646 462.759 178.681 481.286L178.711 585.784C178.7 604.818 178.353 625.791 179.058 644.699C186.611 645.221 195.302 645.046 202.98 644.987C225.935 644.81 249.592 645.658 272.462 644.564C269.631 636.506 266.135 628.761 263.261 620.79C254.633 596.862 244.612 573.532 235.103 549.947L213.724 496.09C207.725 481.081 201.031 465.05 195.465 449.969C194.068 447.581 191.704 441.06 190.61 438.214C188.46 432.523 186.174 426.885 183.751 421.305C197.612 421.204 211.388 421.31 225.257 421.058C227.415 427.051 229.714 432.993 232.15 438.879C233.049 441.063 236.073 448.049 236.55 449.918C239.651 456.53 243.61 467.463 246.491 474.532C255.325 496.375 264.019 518.275 272.573 540.229L331.166 685.411L139.401 685.352L139.179 488.064C139.288 475.971 139.328 463.877 139.298 451.784C139.211 442.312 138.822 431.805 139.097 422.429Z" fill="url(#paint0_linear_1_2)"/>
<path d="M183.751 421.305C197.612 421.204 211.388 421.31 225.257 421.058C227.415 427.051 229.714 432.993 232.15 438.879C233.049 441.063 236.073 448.049 236.55 449.918C236.696 452.99 238.89 455.717 238.302 458.585C236.956 465.145 227.774 466.144 222.564 464.883C216.288 463.375 218.77 457.709 216.927 453.415C216.646 452.762 210.05 449.912 209.205 449.918C205.584 449.946 201.684 453.931 197.987 452.992C197.044 452.752 196.637 450.881 195.465 449.969C194.068 447.581 191.704 441.06 190.61 438.214C188.46 432.523 186.173 426.885 183.751 421.305Z" fill="#1B73AA"/>
<path d="M168.818 421.285C171.998 421.212 175.179 421.212 178.359 421.286L178.389 425.03C177.69 427.058 177.952 428.897 178.033 431.076C177.424 430.835 177.677 430.902 176.965 430.984C174.743 432.919 175.045 436.434 172.862 438.966C170.79 441.37 168.598 441.745 166.956 444.281C165.068 444.424 162.082 444.376 160.109 444.409C157.835 442.916 154.544 441.182 152.706 439.336C149.878 436.497 152.458 434.229 152.501 431.055L152.508 430.679L152.513 430.087C154.287 427.087 161.166 426.948 164.149 425.489C165.389 424.883 167.661 422.39 168.818 421.285Z" fill="#1B73AA"/>
<path d="M139.097 422.429C138.982 421.669 138.977 421.96 139.198 421.206C140.724 420.927 146.081 421.107 147.892 421.124C153.687 421.153 159.482 421.226 165.277 421.344C163.027 422.123 151.36 421.516 147.401 421.912C155.916 429.242 145.841 433.732 140.5 428.422C139.764 427.69 139.59 423.968 139.097 422.429Z" fill="#1B73AA"/>
<path d="M383.365 421L388.44 421.155C400.775 421.179 413.741 421.392 426.015 421.022C424.362 426.036 422.312 431.133 420.407 436.072C419.755 437.76 418.146 442.226 417.431 443.547C416.779 445.677 416.118 447.321 415.28 449.39C409.796 462.897 405.21 476.355 400.017 489.898L337.106 658.239C334.917 653.953 331.497 644.574 329.464 639.668C324.438 627.427 319.302 615.232 314.058 603.082C316.094 599.822 318.95 591.752 320.419 587.917L333.011 554.137C343.534 526.176 354.205 498.271 365.025 470.424L377.083 438.4C378.591 434.411 380.05 429.979 381.668 426.102C382.078 424.543 382.827 422.559 383.365 421Z" fill="url(#paint1_linear_1_2)"/>
<path d="M383.365 421L388.44 421.155C389.22 421.615 389.551 421.533 390.424 421.519L389.828 421.854C389.978 425.115 389.515 427.066 385.878 427.051C383.943 427.044 383.127 426.288 381.668 426.102C382.078 424.543 382.827 422.559 383.365 421Z" fill="#606567"/>
<path d="M415.28 449.39C414.764 447.493 414.222 446.64 415.395 444.909C416.431 444.397 416.536 444.13 417.431 443.547C416.779 445.677 416.118 447.321 415.28 449.39Z" fill="#606567"/>
</g>
<defs>
<linearGradient id="paint0_linear_1_2" x1="202.763" y1="698.75" x2="260.579" y2="442.56" gradientUnits="userSpaceOnUse">
<stop stop-color="#162460"/>
<stop offset="1" stop-color="#2175A5"/>
</linearGradient>
<linearGradient id="paint1_linear_1_2" x1="298.292" y1="629.597" x2="436.385" y2="430.133" gradientUnits="userSpaceOnUse">
<stop stop-color="#2A3036"/>
<stop offset="1" stop-color="#626567"/>
</linearGradient>
<clipPath id="clip0_1_2">
<rect width="1920" height="1080" fill="white"/>
</clipPath>
</defs>
</svg>
