<svg width="1920" height="720" viewBox="0 0 1920 720" fill="none" xmlns="http://www.w3.org/2000/svg">
<path d="M1720.18 277.308C1765.95 273.395 1806.27 307.26 1810.31 353.017C1814.35 398.775 1780.61 439.183 1734.87 443.353C1688.92 447.558 1648.32 413.646 1644.25 367.69C1640.2 321.745 1674.23 281.233 1720.18 277.308ZM1753.93 313.323C1743.54 306.886 1731.49 305.274 1719.49 306.489C1657.84 314.888 1663.39 422.769 1738.02 413.809C1770.84 406.765 1782.88 372.69 1775.57 342.82C1772.53 330.519 1764.75 319.911 1753.93 313.323Z" fill="#0E151B"/>
<path d="M739.429 281.198C764.094 281.794 816.079 278.698 836.642 287.366C847.023 291.735 855.511 299.352 859.672 309.971C864.479 322.236 863.999 339.373 858.641 351.323C852.644 364.699 841.106 373.215 827.809 378.379C840.767 398.425 853.476 418.821 866.94 438.516L843.341 438.213L829.589 438.06C818.094 420.234 806.24 399.698 794.863 381.381L771.214 381.906L771.351 438.318L739.596 438.189L739.429 281.198ZM830.73 325.974C829.326 302.389 788.174 308.79 770.594 308.662C771.568 323.509 771.193 339.805 771.146 354.805C785.925 354.559 812.093 357.129 823.462 347.539C829.795 340.226 831.323 335.939 830.73 325.974Z" fill="#0E151B"/>
<path d="M1405.22 281.034L1436.36 281.244C1435.65 323.719 1436.75 366.545 1436.52 409.055C1436.47 418.33 1436.84 428.178 1436.19 437.36L1434.59 438.154C1423.68 438.201 1412.77 438.131 1401.85 437.944L1348.61 359.956C1343.21 352.2 1331.68 334.665 1325.85 328.275C1325.19 364.956 1325.14 401.637 1325.73 438.306L1294.1 438.189L1293.93 281.256L1331.13 281.28L1379.22 353.683C1387.1 365.505 1396.26 378.297 1403.49 390.364C1405.37 356.242 1404.81 315.636 1405.22 281.034Z" fill="#0E151B"/>
<path d="M616.893 280.403C628.315 281.443 640.482 281.198 651.982 281.163C674.846 332.972 696.308 385.387 716.346 438.353L682.041 438.54C677.671 428.073 673.438 417.548 669.343 406.976L649.506 406.894L598.7 406.917C594.286 417.162 590.1 428.038 585.95 438.435C574.56 438.668 563.168 438.704 551.777 438.54C554.817 430.515 558.718 422.805 561.961 414.826L589.841 345.81C598.196 325.553 607.699 299.69 616.893 280.403ZM634.507 313.731C625.844 335.132 617.691 356.732 610.056 378.519L635.321 378.694L659.109 378.612C655.835 369.22 638.606 319.981 634.507 313.731Z" fill="#0E151B"/>
<path d="M943.051 280.895C954.682 281.42 967.584 281.175 979.331 281.163C999.113 334.572 1021.57 385.785 1043.22 438.318C1031.6 438.377 1019.97 438.306 1008.35 438.107C1004.43 427.804 1000.45 417.512 996.404 407.256L980.992 406.929C962.749 406.824 944.505 406.964 926.266 407.361C922.561 418.202 918.524 427.746 913.978 438.225L879.344 438.411C884.48 423.365 894.564 401.66 900.944 385.878L943.051 280.895ZM961.313 313.72C952.963 335.471 945.312 355.529 938.199 377.748C946.032 378.04 954.348 378.507 962.147 378.53L984.587 378.472C980.057 364.862 974.802 351.206 969.828 337.726C968.052 332.912 963.089 316.757 961.313 313.72Z" fill="#0E151B"/>
<path d="M1542.69 278.896C1569.59 275.707 1593.06 283.382 1612.28 302.155C1605.56 308.568 1598.79 315.519 1592.18 322.107C1576.99 305.741 1553.23 301.244 1532.66 309.339C1491.97 325.343 1492.79 395.761 1533.94 410.749C1550.35 416.73 1568.95 414.347 1584.58 407.198C1584.51 397.105 1584.52 387.023 1584.64 376.942C1574.55 376.848 1564.27 376.977 1554.16 377.012C1554.05 371.393 1553.09 354.162 1555.31 350.062L1557.66 349.56C1576.81 349.303 1595.97 349.233 1615.12 349.361C1615.7 373.811 1615.78 398.261 1615.35 422.711C1584.32 448.423 1534.93 448.621 1502.02 426.309C1466.05 401.941 1459.95 344.221 1484.59 310.005C1498.86 290.169 1519.36 282.541 1542.69 278.896Z" fill="#0E151B"/>
<path d="M1038.37 281.069L1072.52 281.023C1085.92 321.185 1104.4 364.571 1116.34 403.284C1123.34 387.373 1128.6 370.657 1134.6 354.408C1143.61 330.051 1151.91 305.928 1160.06 281.28C1171.43 281.116 1182.79 281.209 1194.15 281.537C1191.9 289.994 1187.22 301.092 1183.97 309.468C1167.92 351.978 1151.73 396.731 1134.92 438.82C1123.13 438.283 1110.36 438.365 1098.49 438.248L1057.94 333.31C1051.5 316.524 1043.98 297.973 1038.37 281.069Z" fill="#0E151B"/>
<path d="M438.789 280.953C448.918 281.233 459.4 281.21 469.56 281.292C471.362 321.43 470.261 369.933 470.1 410.632C493.697 411.006 517.296 411.123 540.897 410.983C540.98 420.27 540.895 429.569 540.641 438.856C530.574 439.51 515.358 439.019 505.028 438.949L439.089 438.271C438.658 386.918 437.523 332.002 438.789 280.953Z" fill="#0E151B"/>
<path d="M1220.59 280.731C1231.03 281.373 1241.29 281.163 1251.74 281.081L1251.63 438.785C1242.01 438.259 1230.93 438.423 1221.18 438.353C1219.46 388.004 1220.49 331.5 1220.59 280.731Z" fill="#0E151B"/>
<path d="M110.097 229.429C109.982 228.669 109.977 228.96 110.198 228.206C111.724 227.927 117.081 228.107 118.892 228.124C124.687 228.153 130.482 228.226 136.277 228.344C137.489 228.299 138.606 228.245 139.819 228.285C142.998 228.212 146.179 228.212 149.359 228.286L149.389 232.03C149.934 250.515 149.646 269.76 149.681 288.286L149.711 392.784C149.7 411.818 149.353 432.791 150.058 451.7C157.611 452.222 166.302 452.046 173.98 451.987C196.935 451.81 220.592 452.658 243.462 451.564C240.631 443.506 237.135 435.761 234.261 427.79C225.633 403.862 215.612 380.532 206.103 356.947L184.724 303.09C178.725 288.081 172.031 272.05 166.465 256.969C165.068 254.581 162.704 248.06 161.61 245.214C159.46 239.523 157.174 233.885 154.751 228.305C168.612 228.204 182.388 228.31 196.257 228.058C198.415 234.051 200.714 239.993 203.15 245.879C204.049 248.063 207.073 255.049 207.55 256.918C210.651 263.53 214.61 274.463 217.491 281.532C226.325 303.375 235.019 325.275 243.573 347.229L302.166 492.411L110.401 492.352L110.179 295.064C110.288 282.971 110.328 270.877 110.298 258.784C110.211 249.312 109.822 238.805 110.097 229.429Z" fill="url(#paint0_linear_3_81)"/>
<path d="M154.751 228.305C168.612 228.204 182.388 228.31 196.257 228.058C198.415 234.051 200.714 239.993 203.15 245.879C204.049 248.063 207.073 255.049 207.55 256.918C207.696 259.99 209.89 262.717 209.302 265.585C207.956 272.145 198.774 273.144 193.564 271.883C187.288 270.375 189.77 264.709 187.926 260.415C187.646 259.762 181.05 256.912 180.205 256.918C176.584 256.946 172.684 260.931 168.987 259.992C168.044 259.752 167.637 257.881 166.465 256.969C165.068 254.581 162.704 248.06 161.61 245.214C159.46 239.523 157.173 233.885 154.751 228.305Z" fill="#1B73AA"/>
<path d="M139.818 228.285C142.998 228.212 146.179 228.212 149.359 228.286L149.389 232.03C148.69 234.058 148.952 235.897 149.033 238.076C148.424 237.835 148.677 237.902 147.965 237.984C145.743 239.919 146.045 243.434 143.862 245.966C141.79 248.37 139.598 248.745 137.956 251.281C136.068 251.424 133.082 251.376 131.109 251.409C128.835 249.916 125.544 248.182 123.706 246.336C120.878 243.497 123.458 241.229 123.501 238.055L123.508 237.679L123.513 237.087C125.287 234.087 132.166 233.948 135.149 232.489C136.389 231.883 138.661 229.39 139.818 228.285Z" fill="#1B73AA"/>
<path d="M110.097 229.429C109.982 228.669 109.977 228.96 110.198 228.206C111.724 227.927 117.081 228.107 118.892 228.124C124.687 228.153 130.482 228.226 136.277 228.344C134.027 229.123 122.36 228.516 118.401 228.912C126.915 236.242 116.841 240.732 111.499 235.422C110.764 234.69 110.589 230.968 110.097 229.429Z" fill="#1B73AA"/>
<path d="M354.365 228L359.44 228.155C371.775 228.179 384.741 228.392 397.015 228.022C395.362 233.036 393.312 238.133 391.407 243.072C390.755 244.76 389.146 249.226 388.431 250.547C387.779 252.677 387.118 254.321 386.28 256.39C380.796 269.898 376.21 283.355 371.017 296.898L308.106 465.239C305.917 460.953 302.497 451.574 300.464 446.668C295.438 434.427 290.302 422.232 285.058 410.082C287.094 406.822 289.95 398.752 291.419 394.917L304.011 361.137C314.534 333.176 325.205 305.271 336.025 277.424L348.083 245.4C349.591 241.411 351.05 236.979 352.668 233.102C353.078 231.543 353.827 229.559 354.365 228Z" fill="url(#paint1_linear_3_81)"/>
<path d="M354.365 228L359.44 228.155C360.22 228.615 360.551 228.533 361.423 228.519L360.828 228.854C360.978 232.115 360.515 234.066 356.878 234.051C354.943 234.044 354.127 233.288 352.668 233.102C353.078 231.543 353.827 229.559 354.365 228Z" fill="#606567"/>
<path d="M386.28 256.39C385.764 254.493 385.222 253.64 386.395 251.909C387.431 251.397 387.536 251.13 388.431 250.547C387.779 252.677 387.118 254.322 386.28 256.39Z" fill="#606567"/>
<defs>
<linearGradient id="paint0_linear_3_81" x1="173.763" y1="505.751" x2="231.579" y2="249.56" gradientUnits="userSpaceOnUse">
<stop stop-color="#162460"/>
<stop offset="1" stop-color="#2175A5"/>
</linearGradient>
<linearGradient id="paint1_linear_3_81" x1="269.292" y1="436.597" x2="407.385" y2="237.133" gradientUnits="userSpaceOnUse">
<stop stop-color="#2A3036"/>
<stop offset="1" stop-color="#626567"/>
</linearGradient>
</defs>
</svg>
