<svg width="400" height="148" viewBox="0 0 400 148" fill="none" xmlns="http://www.w3.org/2000/svg">
<path d="M358.372 57.0026C367.907 56.1982 376.305 63.1594 377.147 72.5651C377.989 81.9707 370.961 90.2762 361.43 91.1334C351.859 91.9977 343.399 85.0271 342.552 75.5807C341.708 66.1365 348.798 57.8094 358.372 57.0026ZM365.403 64.4049C363.237 63.0818 360.728 62.7509 358.228 63.0006C345.383 64.7271 346.539 86.9026 362.088 85.0612C368.924 83.6132 371.433 76.6084 369.91 70.4684C369.277 67.9399 367.657 65.7592 365.403 64.4049Z" fill="#1B73AA"/>
<path d="M154.048 57.8016C159.186 57.9241 170.017 57.2875 174.301 59.0692C176.463 59.9673 178.232 61.5332 179.099 63.7157C180.1 66.237 180 69.7602 178.884 72.2167C177.635 74.9661 175.23 76.7168 172.46 77.7782C175.16 81.8987 177.807 86.0911 180.612 90.1395L175.696 90.077L172.831 90.0458C170.436 86.3816 167.967 82.1604 165.597 78.3954L160.67 78.5028L160.698 90.0985L154.083 90.0721L154.048 57.8016ZM173.068 67.0057C172.776 62.1578 164.202 63.4736 160.54 63.4471C160.743 66.4991 160.665 69.8493 160.655 72.9325C163.734 72.8821 169.186 73.4098 171.555 71.4384C172.874 69.9353 173.192 69.0539 173.068 67.0057Z" fill="#1B73AA"/>
<path d="M292.755 57.7682L299.243 57.8114C299.094 66.5424 299.323 75.3454 299.274 84.0836C299.264 85.9901 299.342 88.0144 299.206 89.9018L298.873 90.0651C296.6 90.0747 294.326 90.0603 292.053 90.0219L280.96 73.9911C279.836 72.3966 277.433 68.7923 276.22 67.4789C276.08 75.0188 276.072 82.5588 276.194 90.0963L269.603 90.0723L269.569 57.8138L277.318 57.8186L287.337 72.7016C288.979 75.1317 290.887 77.761 292.395 80.2415C292.786 73.2275 292.668 64.8807 292.755 57.7682Z" fill="#1B73AA"/>
<path d="M128.52 57.6387C130.899 57.8524 133.434 57.8021 135.83 57.7949C140.593 68.4442 145.064 79.2185 149.238 90.1055L142.092 90.1445C141.181 87.993 140.3 85.8294 139.446 83.6562L135.313 83.6396L124.729 83.6445C123.81 85.7504 122.938 87.986 122.073 90.123C119.701 90.1711 117.327 90.1781 114.954 90.1445C115.587 88.4949 116.4 86.9096 117.075 85.2695L122.884 71.083C124.624 66.9193 126.604 61.6031 128.52 57.6387ZM132.188 64.4893C130.384 68.8883 128.685 73.3284 127.095 77.8066L132.358 77.8428L137.314 77.8262C136.632 75.8956 133.042 65.7739 132.188 64.4893Z" fill="#1B73AA"/>
<path d="M196.469 57.7393C198.892 57.8473 201.58 57.7973 204.027 57.7949C208.149 68.7733 212.827 79.3003 217.338 90.0986C214.916 90.1106 212.494 90.0965 210.072 90.0557C209.257 87.9378 208.427 85.8221 207.584 83.7139L204.373 83.6465C200.572 83.6249 196.772 83.6537 192.972 83.7354C192.2 85.9636 191.359 87.9253 190.412 90.0791L183.196 90.1182C184.266 87.0254 186.367 82.5634 187.696 79.3193L196.469 57.7393ZM200.273 64.4873C198.534 68.9583 196.94 73.0814 195.458 77.6484C197.09 77.7085 198.822 77.8038 200.447 77.8086L205.122 77.7969C204.178 74.9996 203.084 72.1927 202.048 69.4219C201.678 68.4327 200.644 65.1124 200.273 64.4873Z" fill="#1B73AA"/>
<path d="M321.394 57.3287C326.999 56.6732 331.888 58.2508 335.892 62.1097C334.492 63.4279 333.081 64.8567 331.703 66.211C328.539 62.8468 323.589 61.9224 319.304 63.5864C310.827 66.8762 310.997 81.3509 319.571 84.4317C322.991 85.6612 326.865 85.1713 330.121 83.7018C330.107 81.6271 330.109 79.5548 330.134 77.4825C328.031 77.4633 325.889 77.4897 323.784 77.4969C323.76 76.3419 323.56 72.8 324.023 71.9572L324.512 71.8539C328.503 71.8011 332.494 71.7867 336.483 71.8131C336.605 76.839 336.622 81.8648 336.532 86.8906C330.068 92.1758 319.778 92.2166 312.92 87.6302C305.427 82.6212 304.156 70.7566 309.289 63.7233C312.263 59.646 316.534 58.0779 321.394 57.3287Z" fill="#1B73AA"/>
<path d="M216.327 57.7753L223.442 57.7657C226.234 66.0213 230.082 74.9395 232.572 82.8973C234.029 79.6268 235.124 76.1906 236.376 72.8504C238.252 67.8438 239.982 62.8852 241.68 57.8186C244.047 57.785 246.415 57.8042 248.781 57.8714C248.313 59.6099 247.338 61.8911 246.661 63.6128C243.318 72.351 239.945 81.5502 236.442 90.2019C233.986 90.0915 231.326 90.1083 228.851 90.0842L220.404 68.5138C219.064 65.0632 217.496 61.25 216.327 57.7753Z" fill="#1B73AA"/>
<path d="M91.4145 57.7515C93.5247 57.8091 95.7085 57.8043 97.8251 57.8211C98.2006 66.0718 97.9711 76.0418 97.9375 84.4078C102.854 84.4847 107.77 84.5087 112.687 84.4799C112.704 86.3889 112.687 88.3003 112.634 90.2093C110.536 90.3437 107.366 90.2429 105.214 90.2285L91.477 90.0892C91.3872 79.5333 91.1506 68.245 91.4145 57.7515Z" fill="#1B73AA"/>
<path d="M254.29 57.7057C256.464 57.8378 258.602 57.7945 260.779 57.7777L260.757 90.1947C258.753 90.0866 256.444 90.1202 254.412 90.1058C254.054 79.7564 254.27 68.1415 254.29 57.7057Z" fill="#1B73AA"/>
<path d="M22.937 47.1605C22.9129 47.0042 22.9119 47.0639 22.9579 46.9091C23.2759 46.8516 24.392 46.8887 24.7692 46.8921C25.9765 46.8981 27.1839 46.9132 28.391 46.9373C28.6436 46.9281 28.8764 46.917 29.1289 46.9252C29.7914 46.9102 30.454 46.9102 31.1165 46.9255L31.1227 47.695C31.2364 51.4948 31.1764 55.4506 31.1836 59.2589L31.1898 80.7389C31.1876 84.6514 31.1153 88.9626 31.2622 92.8493C32.8358 92.9566 34.6463 92.9206 36.2458 92.9084C41.0283 92.872 45.9567 93.0463 50.7213 92.8214C50.1316 91.1652 49.4031 89.5731 48.8044 87.9346C47.0069 83.016 44.9192 78.2204 42.9381 73.3724L38.4842 62.3017C37.2344 59.2167 35.8399 55.9214 34.6804 52.8215C34.3892 52.3305 33.8968 50.99 33.6688 50.4051C33.221 49.2353 32.7446 48.0764 32.2399 46.9294C35.1277 46.9086 37.9976 46.9305 40.8869 46.8785C41.3366 48.1105 41.8155 49.3319 42.3231 50.5417C42.5103 50.9908 43.1404 52.4268 43.2396 52.8109C43.8858 54.17 44.7104 56.4174 45.3107 57.8705C47.1511 62.3605 48.9624 66.862 50.7445 71.3748L62.9514 101.218L23.0003 101.206L22.954 60.6521C22.9767 58.1663 22.985 55.6803 22.9789 53.1944C22.9608 51.2475 22.8796 49.0878 22.937 47.1605Z" fill="url(#paint0_linear_3_81)"/>
<path d="M32.24 46.9295C35.1278 46.9087 37.9977 46.9306 40.8871 46.8787C41.3368 48.1106 41.8157 49.332 42.3232 50.5419C42.5104 50.9909 43.1405 52.4269 43.2398 52.811C43.2702 53.4426 43.7273 54.0031 43.6048 54.5927C43.3245 55.9411 41.4114 56.1464 40.3261 55.8872C39.0186 55.5773 39.5357 54.4126 39.1516 53.5299C39.0932 53.3957 37.7189 52.8098 37.543 52.8111C36.7886 52.8167 35.9761 53.6359 35.2059 53.4428C35.0093 53.3935 34.9246 53.0089 34.6805 52.8216C34.3893 52.3306 33.8969 50.9902 33.669 50.4052C33.2211 49.2354 32.7447 48.0765 32.24 46.9295Z" fill="#1B73AA"/>
<path d="M29.1289 46.9253C29.7913 46.9103 30.454 46.9103 31.1164 46.9256L31.1227 47.6951C30.9772 48.1119 31.0316 48.4901 31.0485 48.938C30.9217 48.8884 30.9743 48.9021 30.8262 48.9191C30.3632 49.3167 30.4261 50.0393 29.9713 50.5598C29.5397 51.054 29.0831 51.1311 28.7408 51.6523C28.3476 51.6816 27.7256 51.6718 27.3145 51.6785C26.8407 51.3718 26.1551 51.0154 25.7721 50.6359C25.183 50.0523 25.7204 49.586 25.7295 48.9336L25.731 48.8564L25.732 48.7347C26.1016 48.1179 27.5346 48.0894 28.1561 47.7895C28.4144 47.6649 28.8878 47.1524 29.1289 46.9253Z" fill="#1B73AA"/>
<path d="M22.937 47.1605C22.9129 47.0042 22.9119 47.0639 22.9579 46.9091C23.2759 46.8516 24.3921 46.8887 24.7692 46.8921C25.9766 46.8981 27.1839 46.9132 28.3911 46.9373C27.9224 47.0976 25.4918 46.9728 24.667 47.0542C26.4408 48.5609 24.342 49.4837 23.2292 48.3922C23.076 48.2419 23.0396 47.4767 22.937 47.1605Z" fill="#1B73AA"/>
<path d="M73.8262 46.8667L74.8834 46.8986C77.4533 46.9035 80.1545 46.9473 82.7116 46.8711C82.3672 47.9019 81.9401 48.9497 81.5433 49.9649C81.4074 50.3119 81.0721 51.2299 80.9233 51.5013C80.7874 51.9391 80.6496 52.2772 80.4751 52.7024C79.3325 55.479 78.3773 58.2452 77.2953 61.0291L64.1889 95.6324C63.7328 94.7516 63.0203 92.8236 62.5968 91.8151C61.5496 89.299 60.4797 86.7921 59.3872 84.2948C59.8113 83.6246 60.4063 81.9657 60.7123 81.1775L63.3358 74.2338C65.528 68.4862 67.7512 62.7503 70.0053 57.0261L72.5173 50.4434C72.8315 49.6235 73.1355 48.7123 73.4726 47.9154C73.558 47.595 73.7141 47.1872 73.8262 46.8667Z" fill="url(#paint1_linear_3_81)"/>
<path d="M73.8263 46.8667L74.8834 46.8986C75.046 46.993 75.1149 46.9763 75.2968 46.9735L75.1728 47.0421C75.204 47.7126 75.1076 48.1135 74.3498 48.1106C73.9466 48.1091 73.7767 47.9537 73.4727 47.9154C73.5581 47.595 73.7142 47.1872 73.8263 46.8667Z" fill="#606567"/>
<path d="M80.475 52.7025C80.3676 52.3124 80.2546 52.1372 80.4989 51.7814C80.7148 51.6761 80.7368 51.6212 80.9233 51.5013C80.7873 51.9391 80.6495 52.2773 80.475 52.7025Z" fill="#606567"/>
<defs>
<linearGradient id="paint0_linear_3_81" x1="36.2006" y1="103.96" x2="47.9418" y2="51.2308" gradientUnits="userSpaceOnUse">
<stop stop-color="#162460"/>
<stop offset="1" stop-color="#2175A5"/>
</linearGradient>
<linearGradient id="paint1_linear_3_81" x1="56.1025" y1="89.7449" x2="84.3525" y2="48.3891" gradientUnits="userSpaceOnUse">
<stop stop-color="#2A3036"/>
<stop offset="1" stop-color="#626567"/>
</linearGradient>
</defs>
</svg>
